<?xml version="1.0" encoding="UTF-8" standalone="no"?>
<!-- Created with Inkscape (http://www.inkscape.org/) -->

<svg
   version="1.1"
   id="svg55"
   width="230"
   height="219"
   viewBox="0 0 230 219"
   sodipodi:docname="agronomia2_svg.svg"
   inkscape:version="1.1.2 (0a00cf5339, 2022-02-04)"
   inkscape:export-filename="/home/henrique/Documentos/ceagro/public/images/agronomia_svg.png"
   inkscape:export-xdpi="96"
   inkscape:export-ydpi="96"
   xmlns:inkscape="http://www.inkscape.org/namespaces/inkscape"
   xmlns:sodipodi="http://sodipodi.sourceforge.net/DTD/sodipodi-0.dtd"
   xmlns="http://www.w3.org/2000/svg"
   xmlns:svg="http://www.w3.org/2000/svg">
  <defs
     id="defs59" />
  <sodipodi:namedview
     id="namedview57"
     pagecolor="#505050"
     bordercolor="#eeeeee"
     borderopacity="1"
     inkscape:pageshadow="0"
     inkscape:pageopacity="0"
     inkscape:pagecheckerboard="0"
     showgrid="false"
     inkscape:zoom="3.3385772"
     inkscape:cx="66.345628"
     inkscape:cy="145.72076"
     inkscape:window-width="1366"
     inkscape:window-height="699"
     inkscape:window-x="0"
     inkscape:window-y="0"
     inkscape:window-maximized="1"
     inkscape:current-layer="g61" />
  <g
     inkscape:groupmode="layer"
     inkscape:label="Image"
     id="g61">
    <rect
       style="fill:#ffffff;stroke:#000000;stroke-width:0.167424;stroke-linejoin:round"
       id="rect3421"
       width="231.79932"
       height="220.36368"
       x="-0.74393934"
       y="0.4581148"
       transform="matrix(1,0,-0.011729,0.99993121,0,0)"
       inkscape:export-filename="/home/henrique/Documentos/ceagro/public/images/logo_fund0.png"
       inkscape:export-xdpi="96"
       inkscape:export-ydpi="96" />
    <path
       style="fill:#102a83;fill-opacity:1;stroke:#000000;stroke-width:0.0224647;stroke-linejoin:round;stroke-miterlimit:4;stroke-dasharray:none;stroke-opacity:1;paint-order:normal"
       d="m 82.543714,179.72217 c -9.941074,17.32147 -18.095745,31.57671 -18.121492,31.67832 -0.02759,0.10887 2.074506,1.32497 5.118323,2.96106 l 5.165135,2.77632 0.226384,-0.33854 c 0.12451,-0.1862 3.672705,-5.93719 7.884877,-12.77996 l 7.658495,-12.44142 9.564414,-0.091 c 5.26043,-0.05 16.51542,-0.10059 25.0111,-0.11232 l 15.44668,-0.0213 7.68826,12.95462 c 4.22854,7.12504 7.74523,12.95462 7.81488,12.95462 0.19773,0 9.61538,-5.84194 9.61538,-5.9646 0,-0.06 -8.15407,-14.27684 -18.12015,-31.59295 l -18.12014,-31.48384 -14.37873,0.004 -14.37873,0.004 z"
       id="path17786-4" />
    <path
       style="fill:#102a83;fill-opacity:1;stroke:#000000;stroke-width:0.0224647;stroke-linejoin:round;stroke-miterlimit:4;stroke-dasharray:none;stroke-opacity:1;paint-order:normal"
       d="M 82.543981,42.15677 C 72.602907,24.8353 64.448236,10.58006 64.422489,10.47845 64.394899,10.36958 66.496995,9.15348 69.540812,7.51739 l 5.165135,-2.77632 0.226384,0.33854 c 0.12451,0.1862 3.672705,5.93719 7.884877,12.77996 l 7.658495,12.44142 9.564417,0.091 c 5.26043,0.05 16.51542,0.10059 25.0111,0.11232 l 15.44668,0.0213 7.68826,-12.95462 c 4.22854,-7.12504 7.74523,-12.95462 7.81488,-12.95462 0.19773,0 9.61538,5.84194 9.61538,5.9646 0,0.06 -8.15407,14.27684 -18.12015,31.59295 l -18.12014,31.48384 -14.37873,-0.004 -14.37873,-0.004 z"
       id="path17786-4-0" />
    <path
       style="fill:#102a83;fill-opacity:1;stroke:#000000;stroke-width:0.0224647;stroke-linejoin:round;stroke-miterlimit:4;stroke-dasharray:none;stroke-opacity:1;paint-order:normal"
       d="m 36.765082,116.44306 c -19.97086,0.15137 -36.39306476,0.29894 -36.49379116,0.32795 -0.1079283,0.031 -0.097906,2.45959 0.024372,5.91309 l 0.2075104,5.86033 0.4065015,0.0247 c 0.22357796,0.0136 6.97908596,0.17717 15.01221526,0.36347 l 14.605712,0.33872 4.902139,8.21312 c 2.696137,4.51724 8.415981,14.21057 12.710684,21.54081 l 7.808517,13.32768 -7.309131,13.17224 c -4.020023,7.24474 -7.2804,13.22145 -7.245274,13.28159 0.09972,0.17074 9.893866,5.3568 9.999784,5.29493 0.05182,-0.0302 8.215969,-14.24131 18.142551,-31.58009 l 18.048343,-31.52505 -7.25499,-12.41423 -7.25499,-12.41422 z"
       id="path17786-4-4" />
    <path
       style="fill:#102a83;fill-opacity:1;stroke:#000000;stroke-width:0.0224647;stroke-linejoin:round;stroke-miterlimit:4;stroke-dasharray:none;stroke-opacity:1;paint-order:normal"
       d="m 37.380524,103.08195 c -19.969878,0.24916 -36.39173947,0.43098 -36.49302766,0.40398 -0.10852701,-0.0288 -0.14721252,-2.45712 -0.094218,-5.91238 l 0.0899415,-5.863313 0.40592427,-0.03285 C 1.5124046,91.659312 8.2632734,91.36029 16.291051,91.012924 l 14.595981,-0.631564 4.736442,-8.309779 c 2.605002,-4.5704 8.129299,-14.376489 12.276132,-21.791385 L 55.43927,46.7986 47.867444,33.775592 c -4.164505,-7.162663 -7.544088,-13.072784 -7.510175,-13.133616 0.09628,-0.172706 9.784447,-5.554142 9.891585,-5.494408 0.05241,0.02916 8.499921,14.073677 18.772231,31.209893 L 87.698024,77.514218 80.693456,90.071447 73.68889,102.62867 Z"
       id="path17786-4-4-3" />
    <path
       style="fill:#102a83;fill-opacity:1;stroke:#000000;stroke-width:0.0224647;stroke-linejoin:round;stroke-miterlimit:4;stroke-dasharray:none;stroke-opacity:1;paint-order:normal"
       d="m 193.41936,103.98763 c 19.97086,-0.15137 36.39307,-0.29894 36.4938,-0.32795 0.10792,-0.031 0.0979,-2.45959 -0.0244,-5.91309 l -0.20752,-5.86033 -0.4065,-0.0247 c -0.22357,-0.0136 -6.97908,-0.17717 -15.01221,-0.36347 l -14.60571,-0.33872 -4.90214,-8.21312 c -2.69611,-4.51724 -8.41595,-14.210572 -12.71066,-21.540812 l -7.80852,-13.32768 7.30913,-13.172238 c 4.02003,-7.24474 7.2804,-13.22145 7.24528,-13.28159 -0.0997,-0.17074 -9.89387,-5.3568 -9.99979,-5.29493 -12.91564,22.390544 -22.07425,38.447593 -36.19089,63.10514 l 7.25499,12.41423 7.25499,12.41422 z"
       id="path17786-4-4-3-7"
       sodipodi:nodetypes="ccscssccscssccccc" />
    <path
       style="fill:#102a83;fill-opacity:1;stroke:#000000;stroke-width:0.0224647;stroke-linejoin:round;stroke-miterlimit:4;stroke-dasharray:none;stroke-opacity:1;paint-order:normal"
       d="m 193.34263,116.93973 c 19.97089,0.14657 36.39314,0.2902 36.49387,0.31918 0.10793,0.031 0.0985,2.45957 -0.023,5.9131 l -0.20611,5.86038 -0.40649,0.0248 c -0.22357,0.0137 -6.97904,0.17884 -15.01212,0.36707 l -14.60563,0.34223 -4.90017,8.2143 c -2.69503,4.51788 -8.41254,14.21259 -12.70549,21.54386 l -7.80532,13.32955 7.3123,13.17049 c 4.02176,7.24377 7.28357,13.2197 7.24846,13.27985 -0.0996,0.17076 -9.89258,5.35917 -9.99851,5.29733 -0.0518,-0.0302 -8.21938,-14.23934 -18.15014,-31.57574 l -18.05591,-31.52071 7.25201,-12.41597 7.25201,-12.41596 z"
       id="path17786-4-4-3-7-3" />
  </g>
</svg>
